<svg version="1.0" xmlns="http://www.w3.org/2000/svg" width="666.667" height="500" viewBox="0 0 500 500"><path d="M157.6 37c-.9.3-2.9 2.4-4.4 4.6s-3.3 4.7-4 5.5-3.4 4.3-6 7.9l-4.7 6.4-.5-4.9-.5-4.9L134 56c-1.9 2.5-3.8 4.6-4.2 4.8-.5.2-.8.9-.8 1.5s-2.1 3.6-4.8 6.6c-2.6 3.1-6.6 8.1-8.8 11.1-2.3 3-6.6 8.9-9.7 13-6.3 8.5-16.8 22.4-24.3 32-4.7 6.1-9.8 12.7-14.7 19.4-1.2 1.6-4.4 5.7-7 9-2.7 3.4-5.3 6.8-5.7 7.6s-1.1 8.7-1.4 17.5c-.4 8.8-1.1 24.1-1.6 34-1.3 23.7-1.8 35.2-2.5 51-.3 7.1-.8 16.4-1 20.5-.3 4.1-.7 12.7-1 19s-1.4 29-2.5 50.5c-3.7 75.2-3.5 68.9-1.4 67.7 1-.6 3.9-2.6 6.4-4.5 2.4-2 4.7-3.4 5-3.2.4.2.4 2.4 0 4.8-.6 4.4.2 8.6 1.7 8.8 4.8.5 8.8.8 14 .9 3.5.1 6.1.6 5.8 1-.2.4-4.1 3.1-8.5 6s-8 5.6-8 6 4.2 1 9.3 1.4c5 .4 11.5.9 14.2 1.1 2.8.3 11.3.9 19 1.5 12.6.9 28 2 46.5 3.5 13.7 1.1 32.8 2.5 39.5 3 3.9.3 21.6 1.6 39.5 3 17.9 1.3 35.7 2.7 39.5 3 3.9.3 15.5 1.2 26 2l19 1.5 13.5-5.1c7.4-2.7 15.1-5.6 17-6.4 25.6-10.2 24.8-10 36.2-10 14.8 0 15.1-1.4.5-2.7-2.5-.3 26.6-11.9 58.3-23.3 3.6-1.3 6.4-2.7 6.3-3.2-.1-.4-4.5-1.2-9.8-1.7-5.2-.5-9.5-1.3-9.5-1.7 0-.5.7-.9 1.5-.9 1.5 0 20.7-7.3 23.7-9 1-.6 2.2-1 2.8-1s3.1-1 5.6-2.1l4.5-2.2-.6-14.4c-.3-8-.8-17.5-1-21.1-.2-3.7-.6-12.8-1-20.2-.3-7.4-.8-16.2-1-19.5s-.7-12.3-1-20c-.8-19-2-43.8-3-60.5-.3-4.1-.7-12.9-1-19.5-.8-17.2-1.4-30.8-2-40-1.1-18.4-2.6-51.9-2.9-63.1-.1-3.4-.4-4-1.8-3.6-1 .2-1.8.8-1.8 1.3s-.7.9-1.5.9c-1.1 0-1.5-1.2-1.5-4.8 0-6.8-1.7-9.4-6.2-9.8-2-.2-5.6-.8-8-1.4l-4.2-1.2 3.2-2.6c1.8-1.5 3.2-3 3.2-3.3 0-.6-4.6-1.8-9.5-2.4-2.1-.3-44.5-8.4-60.5-111111111111.5-5.2-1.1-11.3-2.2-13.5-2.5s-5.3-1-7-1.5c-1.6-.5-5.9-1.3-9.5-1.9s-7.8-1.3-9.4-1.6c-19.4-3.9-40.4-8-46.1-8.9-1.1-.2-9-1.7-17.5-3.4-15.2-2.9-31.1-6-36-6.9-3-.5-36.4-6.9-43.5-8.3-15.3-3.1-18.4-3.6-19.9-3zm-9.1 124c6.6 1.1 12.2 2 12.5 2s.4 3 .3 6.7c-.1 3.8-.2 8.5-.3 10.6v3.7l-4.2-.5c-6.8-.9-17.1-2.5-19.8-3l-2.5-.5.3-10.5c.2-5.8.6-10.5 1-10.5s6.1.9 12.7 2zM318 372.1c.8 0 2.7.3 4.3.6l2.7.5v25l-7.7-.7c-4.3-.3-9-.8-10.5-1.1l-2.7-.5-.3-12.6-.3-12.5 6.5.7c3.6.3 7.2.7 8 .6z"/></svg>